<svg aria-hidden="true" style="position: absolute; width: 0; height: 0; overflow: hidden;" version="1.1" xmlns="http://www.w3.org/2000/svg" xmlns:xlink="http://www.w3.org/1999/xlink">
<defs>
<symbol id="icon-eats" viewBox="0 0 73 32">
<path fill="#009cbf" style="fill: var(--color1, #009cbf)" d="M24.781 17.275c0 0.941-0.145 1.615-0.436 2.022s-0.824 0.611-1.6 0.611h-8.655c-0.543 0-0.975-0.17-1.295-0.509-0.31-0.339-0.465-0.805-0.465-1.396v-17.804l0.175-0.189h11.709c0.049 0.233 0.078 0.456 0.087 0.669 0.010 0.204 0.015 0.393 0.015 0.567s-0.019 0.393-0.058 0.655c-0.039 0.252-0.102 0.495-0.189 0.727h-7.724c-0.33 0-0.664-0.005-1.004-0.015 0 0.388 0.005 0.708 0.015 0.96s0.015 0.572 0.015 0.96v4.044h0.989c0.33-0.010 0.601-0.015 0.815-0.015h5.469c0.049 0.204 0.087 0.427 0.116 0.669s0.044 0.446 0.044 0.611c0 0.175-0.015 0.383-0.044 0.625-0.029 0.233-0.068 0.456-0.116 0.669h-6.284l-0.989-0.029v4.756c0 0.262-0.005 0.504-0.015 0.727s-0.015 0.47-0.015 0.742c0.281-0.019 0.577-0.034 0.887-0.044s0.655-0.015 1.033-0.015h7.52zM27.213 15.966c0-1.105 0.242-2.012 0.727-2.72 0.495-0.708 1.159-1.232 1.993-1.571 0.844-0.349 1.789-0.524 2.836-0.524 0.407 0 0.853 0.015 1.338 0.044 0.495 0.019 0.984 0.063 1.469 0.131v-1.12c0-0.912-0.209-1.566-0.625-1.964s-0.999-0.596-1.745-0.596c-0.737 0-1.498 0.112-2.284 0.335-0.776 0.213-1.542 0.47-2.298 0.771-0.242-0.242-0.446-0.572-0.611-0.989-0.165-0.427-0.257-0.834-0.276-1.222 0.824-0.349 1.789-0.659 2.895-0.931 1.115-0.271 2.167-0.407 3.156-0.407 1.425 0 2.575 0.398 3.447 1.193s1.309 2.027 1.309 3.695v5.964c0 0.543 0.048 1.023 0.145 1.44 0.107 0.407 0.33 0.756 0.669 1.047-0.087 0.271-0.238 0.562-0.451 0.873-0.213 0.301-0.441 0.529-0.684 0.684-0.601-0.116-1.091-0.339-1.469-0.669-0.356-0.317-0.642-0.705-0.835-1.142l-0.008-0.021c-0.524 0.504-1.154 0.965-1.891 1.382-0.737 0.407-1.581 0.611-2.531 0.611-0.96 0-1.76-0.213-2.4-0.64-0.63-0.427-1.101-0.97-1.411-1.629s-0.465-1.333-0.465-2.022zM30.194 15.762c0 0.591 0.17 1.096 0.509 1.513 0.339 0.407 0.824 0.611 1.455 0.611 0.543 0 1.12-0.15 1.731-0.451s1.173-0.742 1.687-1.324v-2.749c-0.436-0.049-0.882-0.082-1.338-0.102-0.446-0.019-0.873-0.029-1.28-0.029-0.882 0-1.566 0.223-2.051 0.669-0.475 0.446-0.713 1.067-0.713 1.862zM43.185 2.977c0-0.669 0.111-1.154 0.335-1.455 0.223-0.31 0.655-0.465 1.295-0.465h1.135l0.175 0.189v4.291l3.607-0.044c0.087 0.378 0.131 0.742 0.131 1.091 0 0.009 0 0.019 0 0.029 0 0.387-0.048 0.763-0.138 1.122l0.007-0.032-3.607-0.044v8.698c0 0.388 0.092 0.698 0.276 0.931 0.184 0.223 0.495 0.335 0.931 0.335h1.993c0.165 0.446 0.247 0.95 0.247 1.513 0 0.116-0.005 0.233-0.015 0.349 0 0.107-0.015 0.209-0.044 0.305-0.485 0.058-1.004 0.107-1.556 0.145-0.553 0.049-1.115 0.073-1.687 0.073-2.056 0-3.084-0.999-3.084-2.996v-9.338l-2.124 0.029c-0.083-0.328-0.131-0.704-0.131-1.091 0-0.010 0-0.021 0-0.031v0.002c0-0.349 0.044-0.713 0.131-1.091l2.124 0.029v-2.545zM51.138 18.817c0.010-0.339 0.111-0.718 0.305-1.135s0.422-0.742 0.684-0.975c0.611 0.339 1.265 0.64 1.964 0.902s1.406 0.393 2.124 0.393c0.795 0 1.421-0.17 1.876-0.509 0.465-0.339 0.703-0.776 0.713-1.309 0-0.873-0.606-1.532-1.818-1.978l-1.687-0.625c-1.008-0.368-1.876-0.878-2.604-1.527s-1.091-1.522-1.091-2.618c0-0.892 0.223-1.658 0.669-2.298 0.456-0.64 1.072-1.13 1.847-1.469 0.776-0.349 1.653-0.524 2.633-0.524 0.785 0 1.619 0.102 2.502 0.305 0.892 0.204 1.639 0.451 2.24 0.742 0.010 0.369-0.068 0.771-0.233 1.207s-0.378 0.766-0.64 0.989c-0.514-0.223-1.11-0.436-1.789-0.64s-1.377-0.305-2.095-0.305c-0.64 0-1.154 0.155-1.542 0.465-0.378 0.301-0.567 0.708-0.567 1.222 0 0.407 0.145 0.747 0.436 1.018 0.301 0.271 0.756 0.519 1.367 0.742l1.789 0.655c1.086 0.398 1.973 0.95 2.662 1.658 0.688 0.698 1.033 1.605 1.033 2.72 0 1.348-0.524 2.41-1.571 3.185-1.038 0.766-2.415 1.149-4.131 1.149-1.028 0-1.973-0.145-2.836-0.436s-1.61-0.625-2.24-1.004z"></path>
<path fill="#000" style="fill: var(--color2, #000)" d="M15.86 27.309c0 0.401-0.108 0.742-0.323 1.021-0.215 0.276-0.481 0.465-0.799 0.567 0.145 0.052 0.269 0.147 0.371 0.284 0.105 0.134 0.188 0.287 0.249 0.458l0.384 1.021c0.064 0.172 0.125 0.304 0.183 0.397 0.061 0.093 0.131 0.17 0.209 0.231-0.067 0.097-0.161 0.171-0.271 0.212l-0.004 0.001c-0.104 0.046-0.225 0.073-0.353 0.074h-0c-0.175 0-0.303-0.048-0.384-0.144s-0.157-0.237-0.227-0.423l-0.436-1.183c-0.068-0.194-0.167-0.361-0.294-0.503l0.001 0.002c-0.122-0.137-0.319-0.205-0.589-0.205h-0.711v2.396c-0.069 0.014-0.151 0.024-0.233 0.026l-0.002 0c-0.069 0.005-0.15 0.008-0.231 0.008s-0.162-0.003-0.242-0.009l0.011 0.001c-0.082-0.002-0.16-0.012-0.235-0.028l0.008 0.002v-5.913l0.057-0.052 0.964-0.017c0.272-0.008 0.593-0.013 0.916-0.013h0.001c0.605 0 1.087 0.153 1.444 0.458s0.537 0.749 0.537 1.331zM12.866 26.248v2.129c0.286-0.011 0.623-0.017 0.962-0.017h0.002c0.285 0 0.505-0.052 0.659-0.157s0.26-0.237 0.319-0.397c0.058-0.163 0.087-0.329 0.087-0.497 0-0.177-0.029-0.346-0.087-0.506s-0.164-0.291-0.319-0.393c-0.154-0.102-0.374-0.153-0.659-0.153h-0.467l-0.497-0.009zM20.918 30.734c0 0.282-0.044 0.484-0.131 0.607s-0.247 0.183-0.48 0.183h-2.596c-0.163 0-0.293-0.051-0.389-0.153-0.093-0.102-0.139-0.241-0.139-0.419v-5.341l0.052-0.057h3.512c0.015 0.070 0.023 0.137 0.026 0.201 0.003 0.061 0.005 0.118 0.005 0.17s-0.006 0.118-0.018 0.196c-0.013 0.082-0.032 0.156-0.059 0.226l0.003-0.008h-2.317c-0.099 0-0.199-0.001-0.301-0.004 0 0.116 0.001 0.212 0.004 0.288s0.004 0.172 0.004 0.288v1.213h0.296c0.099-0.003 0.18-0.004 0.245-0.004h1.641c0.015 0.061 0.026 0.128 0.035 0.201s0.013 0.134 0.013 0.183c0 0.052-0.004 0.115-0.013 0.188-0.010 0.079-0.022 0.148-0.038 0.215l0.003-0.014h-1.886l-0.296-0.009v1.427c0 0.079-0.001 0.151-0.005 0.218s-0.004 0.141-0.004 0.223c0.084-0.006 0.173-0.010 0.266-0.013s0.196-0.004 0.31-0.004h2.256zM21.602 30.978c0.014-0.15 0.061-0.286 0.133-0.406l-0.002 0.004c0.079-0.134 0.165-0.239 0.258-0.314 0.253 0.166 0.533 0.305 0.842 0.419 0.27 0.105 0.583 0.168 0.91 0.17h0.001c0.352 0 0.625-0.076 0.821-0.227 0.195-0.154 0.292-0.352 0.292-0.593 0-0.204-0.068-0.384-0.205-0.541-0.137-0.16-0.333-0.294-0.589-0.401l-1.052-0.441c-0.369-0.154-0.663-0.352-0.881-0.593-0.215-0.244-0.323-0.553-0.323-0.925 0-0.317 0.082-0.602 0.249-0.855 0.175-0.26 0.411-0.466 0.688-0.602l0.010-0.005c0.297-0.151 0.64-0.227 1.030-0.227 0.364 0 0.705 0.047 1.025 0.14s0.593 0.196 0.82 0.31c-0.005 0.147-0.041 0.284-0.103 0.407l0.003-0.006c-0.061 0.131-0.14 0.24-0.236 0.327-0.211-0.106-0.46-0.204-0.718-0.28l-0.032-0.008c-0.271-0.081-0.518-0.122-0.742-0.122-0.326 0-0.582 0.079-0.768 0.236-0.183 0.157-0.275 0.351-0.275 0.58 0 0.192 0.067 0.349 0.201 0.471s0.308 0.228 0.524 0.319l1.042 0.432c0.373 0.154 0.683 0.367 0.93 0.637 0.25 0.271 0.375 0.602 0.375 0.995 0 0.335-0.079 0.634-0.236 0.899-0.154 0.262-0.39 0.47-0.707 0.624-0.317 0.151-0.716 0.227-1.196 0.227-0.364 0-0.73-0.058-1.1-0.175-0.377-0.118-0.706-0.279-1.003-0.484l0.012 0.008zM27.648 26.973v-0.646c-0.061 0-0.145 0.001-0.253 0.004s-0.192 0.004-0.253 0.004h-1.034c-0.013-0.056-0.024-0.125-0.030-0.195l-0-0.006c-0.005-0.056-0.009-0.121-0.009-0.187v-0c0-0.058 0.003-0.121 0.009-0.188s0.016-0.135 0.031-0.205h4.010c0.035 0.113 0.052 0.236 0.052 0.367 0 0.151-0.042 0.259-0.126 0.323-0.085 0.061-0.216 0.092-0.393 0.092h-0.572c-0.058 0-0.143-0.001-0.253-0.004-0.072-0.002-0.159-0.004-0.246-0.004h-0.007v0.327c0.003 0.096 0.005 0.202 0.005 0.319v4.543c-0.076 0.015-0.156 0.023-0.241 0.026-0.069 0.005-0.148 0.008-0.229 0.008s-0.161-0.003-0.24-0.009l0.011 0.001c-0.084-0.003-0.163-0.012-0.241-0.028l0.009 0.002v-4.543zM31.739 30.075h-0.223c-0.128-0.003-0.227-0.006-0.326-0.010l0.042 0.001-0.463 1.457c-0.058 0.015-0.122 0.023-0.192 0.026-0.063 0.006-0.136 0.009-0.209 0.009v0c-0.172 0-0.323-0.020-0.454-0.061l-0.026-0.044 1.968-5.9c0.073-0.012 0.161-0.020 0.266-0.026s0.196-0.009 0.275-0.009c0.073 0 0.161 0.003 0.267 0.009s0.189 0.016 0.253 0.031l1.959 5.9c-0.072 0.042-0.155 0.073-0.245 0.087l-0.004 0.001c-0.088 0.019-0.188 0.031-0.291 0.031-0 0-0.001 0-0.001 0h0c-0.148 0-0.263-0.033-0.344-0.1s-0.152-0.198-0.21-0.393l-0.323-1.017c-0.062 0.003-0.164 0.006-0.266 0.008l-0.026 0h-1.427zM31.974 27.736l-0.502 1.575c0.067 0 0.148-0.001 0.244-0.004 0.099-0.003 0.166-0.004 0.201-0.004h0.868c0.032 0 0.093 0.001 0.183 0.004 0.093 0 0.176 0.001 0.249 0.004l-0.401-1.261c-0.079-0.253-0.16-0.521-0.244-0.803-0.028-0.069-0.1-0.327-0.168-0.587l-0.041-0.185h-0.048c-0.044 0.195-0.1 0.415-0.17 0.659-0.067 0.241-0.124 0.442-0.171 0.602zM40.010 29.421c0 0.721-0.201 1.27-0.602 1.645s-0.937 0.563-1.606 0.563c-0.666 0-1.2-0.188-1.601-0.563-0.399-0.375-0.598-0.924-0.598-1.645v-3.849l0.057-0.057h0.354c0.189 0 0.322 0.048 0.401 0.144s0.118 0.247 0.118 0.454v3.308c0 0.972 0.425 1.457 1.274 1.457s1.274-0.486 1.274-1.457v-3.866c0.070-0.015 0.144-0.023 0.223-0.026 0.070-0.005 0.151-0.008 0.233-0.008s0.163 0.003 0.244 0.009l-0.011-0.001c0.090 0.003 0.17 0.012 0.24 0.026v3.866zM45.434 27.309c0 0.401-0.108 0.742-0.323 1.021-0.215 0.276-0.481 0.465-0.799 0.567 0.145 0.052 0.269 0.147 0.371 0.284 0.105 0.134 0.188 0.287 0.249 0.458l0.384 1.021c0.064 0.172 0.125 0.304 0.183 0.397 0.061 0.093 0.131 0.17 0.209 0.231-0.067 0.097-0.161 0.171-0.271 0.212l-0.004 0.001c-0.104 0.046-0.225 0.073-0.353 0.074h-0c-0.175 0-0.303-0.048-0.384-0.144s-0.157-0.237-0.227-0.423l-0.436-1.183c-0.068-0.194-0.167-0.361-0.294-0.503l0.001 0.002c-0.122-0.137-0.319-0.205-0.589-0.205h-0.711v2.396c-0.069 0.014-0.151 0.024-0.233 0.026l-0.002 0c-0.069 0.005-0.15 0.008-0.231 0.008s-0.162-0.003-0.242-0.009l0.011 0.001c-0.082-0.002-0.16-0.012-0.235-0.028l0.008 0.002v-5.913l0.057-0.052 0.965-0.017c0.272-0.008 0.593-0.013 0.916-0.013h0.001c0.605 0 1.086 0.153 1.444 0.458s0.537 0.749 0.537 1.331zM42.44 26.248v2.129c0.286-0.011 0.624-0.017 0.963-0.017h0.002c0.285 0 0.504-0.052 0.658-0.157s0.26-0.237 0.319-0.397c0.058-0.163 0.087-0.329 0.087-0.497 0-0.177-0.029-0.346-0.087-0.506s-0.164-0.291-0.319-0.393c-0.154-0.102-0.373-0.153-0.659-0.153h-0.467l-0.497-0.009zM47.992 30.075h-0.223c-0.128-0.003-0.227-0.006-0.326-0.010l0.042 0.001-0.463 1.457c-0.058 0.015-0.122 0.023-0.192 0.026-0.063 0.006-0.136 0.009-0.209 0.009v0c-0.172 0-0.323-0.020-0.454-0.061l-0.026-0.044 1.968-5.9c0.073-0.012 0.161-0.020 0.266-0.026s0.196-0.009 0.275-0.009c0.073 0 0.161 0.003 0.266 0.009s0.189 0.016 0.253 0.031l1.959 5.9c-0.072 0.042-0.155 0.073-0.245 0.087l-0.004 0.001c-0.088 0.019-0.188 0.031-0.291 0.031-0 0-0.001 0-0.001 0h0c-0.148 0-0.263-0.033-0.345-0.1s-0.151-0.198-0.209-0.393l-0.323-1.017c-0.062 0.003-0.164 0.006-0.266 0.008l-0.026 0h-1.427zM48.227 27.736l-0.502 1.575c0.067 0 0.148-0.001 0.244-0.004 0.099-0.003 0.166-0.004 0.201-0.004h0.868c0.032 0 0.093 0.001 0.183 0.004 0.093 0 0.176 0.001 0.249 0.004l-0.401-1.261c-0.079-0.253-0.16-0.521-0.244-0.803-0.028-0.069-0.1-0.327-0.168-0.587l-0.041-0.185h-0.048c-0.044 0.195-0.1 0.415-0.17 0.659-0.067 0.241-0.124 0.442-0.17 0.602zM53.471 27.854c-0.052-0.091-0.152-0.297-0.25-0.505l-0.052-0.123-0.257-0.58-0.031 0.004c0.012 0.204 0.023 0.431 0.035 0.681 0.012 0.247 0.020 0.499 0.026 0.755 0.009 0.253 0.013 0.487 0.013 0.703v2.727c-0.079 0.015-0.154 0.023-0.227 0.026-0.061 0.005-0.132 0.008-0.203 0.008s-0.142-0.003-0.212-0.009l0.009 0.001c-0.084-0.003-0.163-0.012-0.241-0.028l0.010 0.002v-5.952c0.081-0.015 0.177-0.026 0.275-0.030l0.004-0c0.081-0.007 0.176-0.012 0.273-0.013l0.002-0c0.073 0 0.16 0.003 0.262 0.009 0.105 0.003 0.202 0.012 0.292 0.026l1.846 3.657c0.111 0.23 0.214 0.454 0.31 0.672 0.099 0.215 0.191 0.412 0.275 0.589l0.031-0.004c-0.017-0.233-0.032-0.48-0.044-0.742-0.009-0.265-0.016-0.522-0.022-0.772-0.006-0.253-0.009-0.48-0.009-0.681v-2.177c0-0.204 0.035-0.351 0.105-0.441 0.073-0.093 0.205-0.14 0.397-0.14h0.301l0.057 0.052v5.939c-0.076 0.015-0.167 0.025-0.275 0.031-0.093 0.008-0.2 0.013-0.309 0.013-0.089 0-0.178-0.003-0.265-0.010l0.012 0.001c-0.103-0.003-0.201-0.013-0.297-0.028l0.013 0.002-1.855-3.661zM58.927 26.973v-0.646c-0.061 0-0.145 0.001-0.253 0.004s-0.192 0.004-0.253 0.004h-1.034c-0.013-0.056-0.024-0.125-0.030-0.195l-0-0.006c-0.005-0.056-0.008-0.121-0.009-0.187v-0c0-0.058 0.003-0.121 0.009-0.188s0.016-0.135 0.031-0.205h4.010c0.035 0.113 0.052 0.236 0.052 0.367 0 0.151-0.042 0.259-0.127 0.323-0.084 0.061-0.215 0.092-0.393 0.092h-0.572c-0.058 0-0.143-0.001-0.253-0.004-0.072-0.002-0.159-0.004-0.246-0.004h-0.007v0.327c0.003 0.096 0.004 0.202 0.004 0.319v4.543c-0.076 0.015-0.156 0.023-0.24 0.026-0.069 0.005-0.148 0.008-0.229 0.008s-0.161-0.003-0.24-0.009l0.011 0.001c-0.084-0.003-0.163-0.012-0.24-0.028l0.009 0.002v-4.543z"></path>
<path fill="#e78200" style="fill: var(--color3, #e78200)" d="M2.424 12.121c1.339 0 2.424-1.085 2.424-2.424s-1.085-2.424-2.424-2.424v0c-1.339 0-2.424 1.085-2.424 2.424s1.085 2.424 2.424 2.424v0zM70.303 12.121c1.339 0 2.424-1.085 2.424-2.424s-1.085-2.424-2.424-2.424v0c-1.339 0-2.424 1.085-2.424 2.424s1.085 2.424 2.424 2.424v0z"></path>
</symbol>
</defs>
</svg>
